<?xml version="1.0"?>
<svg xmlns="http://www.w3.org/2000/svg" width="1000" height="1000" viewBox="-500 -500 1000 1000">
    <g>
        <path d="M-431.80,-46.90L-355.60,-46.90C-338.07,-46.90 -323.85,-10.28 -323.85,34.84C-323.85,79.96 -338.07,116.58 -355.60,116.58L-431.80,116.58C-449.33,116.58 -463.55,79.96 -463.55,34.84C-463.55,-10.28 -449.33,-46.90 -431.80,-46.90Z" fill="#80ced6"/>
        <path d="M-330.20,-105.86C-330.20,-68.86 -358.63,-38.86 -393.70,-38.86C-428.77,-38.86 -457.20,-68.86 -457.20,-105.86C-457.20,-142.86 -428.77,-172.86 -393.70,-172.86C-358.63,-172.86 -330.20,-142.86 -330.20,-105.86Z" fill="#f4e1d2"/>
        <path d="M-419.10,-81.74C-401.99,-71.91 -383.79,-71.91 -364.49,-81.74" fill="none" stroke="#000000"/>
        <path d="M-234.95,-46.90L-158.75,-46.90C-141.22,-46.90 -127,-10.28 -127,34.84C-127,79.96 -141.22,116.58 -158.75,116.58L-234.95,116.58C-252.48,116.58 -266.70,79.96 -266.70,34.84C-266.70,-10.28 -252.48,-46.90 -234.95,-46.90Z" fill="#80ced6"/>
        <path d="M-133.35,-105.86C-133.35,-68.86 -161.78,-38.86 -196.85,-38.86C-231.92,-38.86 -260.35,-68.86 -260.35,-105.86C-260.35,-142.86 -231.92,-172.86 -196.85,-172.86C-161.78,-172.86 -133.35,-142.86 -133.35,-105.86Z" fill="#f4e1d2"/>
        <path d="M-222.25,-81.74C-205.14,-71.91 -186.94,-71.91 -167.64,-81.74" fill="none" stroke="#000000"/>
        <path d="M-38.10,-46.90L38.10,-46.90C55.63,-46.90 69.85,-10.28 69.85,34.84C69.85,79.96 55.63,116.58 38.10,116.58L-38.10,116.58C-55.63,116.58 -69.85,79.96 -69.85,34.84C-69.85,-10.28 -55.63,-46.90 -38.10,-46.90Z" fill="#80ced6"/>
        <path d="M63.50,-105.86C63.50,-68.86 35.07,-38.86 0,-38.86C-35.07,-38.86 -63.50,-68.86 -63.50,-105.86C-63.50,-142.86 -35.07,-172.86 0,-172.86C35.07,-172.86 63.50,-142.86 63.50,-105.86Z" fill="#f4e1d2"/>
        <path d="M-25.40,-81.74C-8.29,-71.91 9.91,-71.91 29.21,-81.74" fill="none" stroke="#000000"/>
        <path d="M158.75,-46.90L234.95,-46.90C252.48,-46.90 266.70,-10.28 266.70,34.84C266.70,79.96 252.48,116.58 234.95,116.58L158.75,116.58C141.22,116.58 127,79.96 127,34.84C127,-10.28 141.22,-46.90 158.75,-46.90Z" fill="#618685"/>
        <path d="M260.35,-105.86C260.35,-68.86 231.92,-38.86 196.85,-38.86C161.78,-38.86 133.35,-68.86 133.35,-105.86C133.35,-142.86 161.78,-172.86 196.85,-172.86C231.92,-172.86 260.35,-142.86 260.35,-105.86Z" fill="#f4e1d2"/>
        <path d="M171.45,-81.74C188.56,-90.67 206.76,-90.67 226.06,-81.74" fill="none" stroke="#000000"/>
        <path d="M355.60,-46.90L431.80,-46.90C449.33,-46.90 463.55,-10.28 463.55,34.84C463.55,79.96 449.33,116.58 431.80,116.58L355.60,116.58C338.07,116.58 323.85,79.96 323.85,34.84C323.85,-10.28 338.07,-46.90 355.60,-46.90Z" fill="#618685"/>
        <path d="M457.20,-105.86C457.20,-68.86 428.77,-38.86 393.70,-38.86C358.63,-38.86 330.20,-68.86 330.20,-105.86C330.20,-142.86 358.63,-172.86 393.70,-172.86C428.77,-172.86 457.20,-142.86 457.20,-105.86Z" fill="#f4e1d2"/>
        <path d="M368.30,-81.74C385.41,-90.67 403.61,-90.67 422.91,-81.74" fill="none" stroke="#000000"/>
    </g>
</svg>