<?xml version="1.0"?>
<svg xmlns="http://www.w3.org/2000/svg" width="1000" height="1000" viewBox="-500 -500 1000 1000">
    <g>
        <path d="M-85.80,95.68L85.80,95.68C125.27,95.68 157.30,173.84 157.30,270.14C157.30,366.44 125.27,444.60 85.80,444.60L-85.80,444.60C-125.27,444.60 -157.30,366.44 -157.30,270.14C-157.30,173.84 -125.27,95.68 -85.80,95.68Z" fill="#ffffff"/>
        <path d="M0,81.38C7.10,81.38 12.87,86.51 12.87,92.82L12.87,367.38C12.87,373.69 7.10,378.82 0,378.82C-7.10,378.82 -12.87,373.69 -12.87,367.38L-12.87,92.82C-12.87,86.51 -7.10,81.38 0,81.38Z" fill="#618685"/>
        <path d="M0,-470.60C-69.50,-470.60 -125.84,-414.26 -125.84,-344.76C-125.84,-275.26 -69.50,-218.92 0,-218.92C69.50,-218.92 125.84,-275.26 125.84,-344.76C125.84,-414.26 69.50,-470.60 0,-470.60ZM19.35,-266.11L-17.62,-266.11L-17.62,-296.61L19.35,-296.61L19.35,-266.11ZM54.83,-355.05C51.70,-351.26 45.65,-346.40 36.73,-340.47L27.92,-334.65C23.12,-331.50 19.93,-327.79 18.37,-323.56C17.40,-320.88 16.83,-316.71 16.74,-311.11L-16.75,-311.11C-16.25,-323.01 -14.93,-331.23 -12.77,-335.75C-10.62,-340.31 -5.08,-345.55 3.85,-351.46L12.90,-357.50L20.09,-363.73C23.41,-367.62 25.04,-371.88 25.04,-376.52C25.04,-381.87 23.22,-386.74 19.51,-391.15C15.84,-395.55 9.11,-397.75 -0.64,-397.75C-10.24,-397.75 -17.05,-395.03 -21.06,-389.61C-25.06,-384.18 -27.06,-378.55 -27.06,-372.70L-62.92,-372.70C-61.93,-392.77 -53.69,-407.00 -38.22,-415.37C-28.47,-420.74 -16.47,-423.41 -2.23,-423.41C16.45,-423.41 31.99,-419.60 44.36,-411.99C56.71,-404.38 62.92,-393.13 62.92,-378.20C62.92,-369.05 60.23,-361.34 54.83,-355.05Z" fill="#80ced6"/>
        <path d="M143,-30.16C143,48.82 78.98,112.84 0,112.84C-78.98,112.84 -143,48.82 -143,-30.16C-143,-109.14 -78.98,-173.16 0,-173.16C78.98,-173.16 143,-109.14 143,-30.16Z" fill="#f4e1d2"/>
    </g>
</svg>