<?xml version="1.0"?>
<svg xmlns="http://www.w3.org/2000/svg" width="1000" height="1000" viewBox="-500 -500 1000 1000">
    <g>
        <path d="M160.04,-12.27L229.64,-12.27C245.65,-12.27 258.64,19.70 258.64,59.10C258.64,98.49 245.65,130.47 229.64,130.47L160.04,130.47C144.03,130.47 131.04,98.49 131.04,59.10C131.04,19.70 144.03,-12.27 160.04,-12.27Z" fill="#ffffff"/>
        <path d="M252.84,-63.75C252.84,-31.44 226.87,-5.25 194.84,-5.25C162.81,-5.25 136.84,-31.44 136.84,-63.75C136.84,-96.06 162.81,-122.25 194.84,-122.25C226.87,-122.25 252.84,-96.06 252.84,-63.75Z" fill="#f4e1d2"/>
        <path d="M128.72,-84.81C172.12,-146.45 216.20,-145.67 260.96,-82.47" fill="none" stroke="#000000"/>
        <path d="M124.66,-90.66L135.10,-90.66L135.10,-57.90L124.66,-57.90Z"/>
        <path d="M256.90,-90.66L267.34,-90.66L267.34,-57.90L256.90,-57.90Z"/>
        <path d="M132.20,-63.75C147.04,-40.96 167.92,-30.82 194.84,-33.33" fill="none" stroke="#000000"/>
    </g>
    <g>
        <path d="M-260.42,-344.86L-190.82,-344.86C-174.81,-344.86 -161.82,-312.88 -161.82,-273.49C-161.82,-234.09 -174.81,-202.12 -190.82,-202.12L-260.42,-202.12C-276.43,-202.12 -289.42,-234.09 -289.42,-273.49C-289.42,-312.88 -276.43,-344.86 -260.42,-344.86Z" fill="#80ced6"/>
        <path d="M-167.62,-396.34C-167.62,-364.03 -193.59,-337.84 -225.62,-337.84C-257.65,-337.84 -283.62,-364.03 -283.62,-396.34C-283.62,-428.65 -257.65,-454.84 -225.62,-454.84C-193.59,-454.84 -167.62,-428.65 -167.62,-396.34Z" fill="#f4e1d2"/>
        <path d="M-248.82,-375.28C-233.19,-366.70 -216.56,-366.70 -198.94,-375.28" fill="none" stroke="#000000"/>
        <path d="M-122.44,-448.88C-114.27,-442.89 -108.00,-434.65 -104.39,-425.15L-153.12,-406.28Z" fill="#fefbd8"/>
        <path d="M-128.76,-491.69L-33.64,-491.69C-28.52,-491.69 -24.36,-484.35 -24.36,-475.31L-24.36,-435.53C-24.36,-426.49 -28.52,-419.15 -33.64,-419.15L-128.76,-419.15C-133.88,-419.15 -138.04,-426.49 -138.04,-435.53L-138.04,-475.31C-138.04,-484.35 -133.88,-491.69 -128.76,-491.69Z" fill="#fefbd8"/>
        <path d="M-260.42,-2.63L-190.82,-2.63C-174.81,-2.63 -161.82,29.34 -161.82,68.74C-161.82,108.13 -174.81,140.11 -190.82,140.11L-260.42,140.11C-276.43,140.11 -289.42,108.13 -289.42,68.74C-289.42,29.34 -276.43,-2.63 -260.42,-2.63Z" fill="#80ced6"/>
        <path d="M-167.62,-54.11C-167.62,-21.80 -193.59,4.39 -225.62,4.39C-257.65,4.39 -283.62,-21.80 -283.62,-54.11C-283.62,-86.42 -257.65,-112.61 -225.62,-112.61C-193.59,-112.61 -167.62,-86.42 -167.62,-54.11Z" fill="#f4e1d2"/>
        <path d="M-248.82,-33.05C-233.19,-24.47 -216.56,-24.47 -198.94,-33.05" fill="none" stroke="#000000"/>
        <path d="M-122.44,-106.65C-114.27,-100.67 -108.00,-92.43 -104.39,-82.93L-153.12,-64.06Z" fill="#fefbd8"/>
        <path d="M-128.76,-149.47L-33.64,-149.47C-28.52,-149.47 -24.36,-142.13 -24.36,-133.09L-24.36,-93.31C-24.36,-84.27 -28.52,-76.93 -33.64,-76.93L-128.76,-76.93C-133.88,-76.93 -138.04,-84.27 -138.04,-93.31L-138.04,-133.09C-138.04,-142.13 -133.88,-149.47 -128.76,-149.47Z" fill="#fefbd8"/>
        <path d="M-260.42,339.59L-190.82,339.59C-174.81,339.59 -161.82,371.57 -161.82,410.96C-161.82,450.36 -174.81,482.33 -190.82,482.33L-260.42,482.33C-276.43,482.33 -289.42,450.36 -289.42,410.96C-289.42,371.57 -276.43,339.59 -260.42,339.59Z" fill="#618685"/>
        <path d="M-167.62,288.11C-167.62,320.42 -193.59,346.61 -225.62,346.61C-257.65,346.61 -283.62,320.42 -283.62,288.11C-283.62,255.80 -257.65,229.61 -225.62,229.61C-193.59,229.61 -167.62,255.80 -167.62,288.11Z" fill="#f4e1d2"/>
        <path d="M-248.82,309.17C-233.19,301.37 -216.56,301.37 -198.94,309.17" fill="none" stroke="#000000"/>
        <path d="M-122.44,235.57C-114.27,241.56 -108.00,249.80 -104.39,259.30L-153.12,278.17Z" fill="#fefbd8"/>
        <path d="M-128.76,192.76L-33.64,192.76C-28.52,192.76 -24.36,200.10 -24.36,209.14L-24.36,248.92C-24.36,257.96 -28.52,265.30 -33.64,265.30L-128.76,265.30C-133.88,265.30 -138.04,257.96 -138.04,248.92L-138.04,209.14C-138.04,200.10 -133.88,192.76 -128.76,192.76Z" fill="#fefbd8"/>
    </g>
</svg>