<?xml version="1.0"?>
<svg xmlns="http://www.w3.org/2000/svg" width="1000" height="1000" viewBox="-500 -500 1000 1000">
    <g>
        <path d="M155.84,27.35C155.84,135.60 68.09,223.35 -40.16,223.35C-148.41,223.35 -236.16,135.60 -236.16,27.35C-236.16,-80.90 -148.41,-168.65 -40.16,-168.65C68.09,-168.65 155.84,-80.90 155.84,27.35Z" fill="#618685"/>
        <path d="M-55.79,-168.69C-76.27,-166.93 -98.84,-161.36 -117.15,-153.53C-123.91,-150.62 -135.05,-145.09 -135.05,-144.64C-135.05,-144.23 -131.40,-143.33 -129.77,-143.33C-125.67,-143.33 -121.86,-140.50 -120.34,-136.37C-119.28,-133.50 -117.76,-131.62 -114.69,-129.36C-112.19,-127.52 -111.09,-125.72 -111.50,-124.16C-111.62,-123.59 -113.30,-121.54 -115.14,-119.61C-119.20,-115.39 -120.30,-113.88 -120.30,-112.40C-120.30,-111.83 -119.36,-109.45 -118.26,-107.16C-115.26,-101.06 -115.39,-99.01 -119.12,-94.75C-123.29,-89.91 -125.63,-89.09 -128.95,-91.27C-133.45,-94.30 -135.54,-98.23 -137.10,-106.79C-138.33,-113.71 -142.18,-122.60 -145.95,-127.23C-148.94,-130.92 -150.86,-132.56 -152.71,-132.89C-154.02,-133.13 -154.47,-132.89 -158.65,-129.77C-161.10,-127.93 -165.24,-124.65 -167.82,-122.52C-172.78,-118.38 -188.30,-103.19 -188.30,-102.45C-188.30,-102.20 -186.91,-101.75 -185.23,-101.38C-183.55,-101.02 -180.77,-100.44 -179.09,-100.07C-175.36,-99.29 -172.53,-97.53 -171.34,-95.24C-170.69,-93.89 -170.48,-92.41 -170.24,-86.64C-169.91,-79.30 -169.54,-77.09 -168.23,-74.51C-167.00,-72.09 -165.53,-71.85 -162.21,-73.49C-160.53,-74.35 -159.92,-74.96 -158.85,-76.89C-157.33,-79.71 -156.52,-80.74 -155.04,-81.68C-153.65,-82.54 -152.62,-82.34 -149.51,-80.45C-146.19,-78.44 -144.72,-78.12 -141.36,-78.61C-135.71,-79.51 -133.66,-79.51 -129.52,-78.85C-122.56,-77.67 -121.12,-76.40 -122.52,-72.67C-123.50,-70.13 -124.81,-68.65 -128.25,-66.36C-131.53,-64.15 -134.35,-61.24 -135.21,-59.27C-135.54,-58.54 -135.99,-55.96 -136.24,-53.54C-136.89,-46.90 -137.96,-45.30 -144.39,-41.49C-148.36,-39.16 -152.54,-35.31 -153.73,-32.93C-154.34,-31.62 -154.55,-30.23 -154.63,-25.81C-154.84,-18.80 -154.14,-15.81 -151.56,-12.12C-150.82,-11.06 -150.21,-10.12 -150.21,-9.99C-150.21,-9.50 -151.80,-9.87 -153.73,-10.77C-157.87,-12.70 -160.61,-16.18 -162.95,-22.41C-164.59,-26.83 -166.18,-27.81 -171.63,-27.81C-176.55,-27.81 -180.52,-24.82 -181.14,-20.69C-181.38,-19.17 -181.18,-18.47 -179.91,-15.89C-179.09,-14.21 -177.57,-11.59 -176.51,-9.99C-174.54,-7.08 -173.84,-6.51 -166.76,-2.21C-163.19,-0.04 -161.23,2.01 -158.69,6.19C-156.23,10.24 -153.53,13.32 -151.40,14.42C-149.18,15.53 -144.27,16.55 -142.59,16.22C-141.69,16.06 -140.29,15.20 -138.94,13.97C-135.99,11.31 -134.72,10.69 -132.06,10.69C-129.32,10.69 -126.94,11.51 -124.44,13.27C-121.16,15.61 -118.83,16.80 -113.87,18.68C-107.81,21.02 -106.09,21.84 -102.48,24.25C-97.36,27.69 -95.89,29.86 -94.66,35.93C-93.31,42.48 -91.51,44.61 -85.03,47.32C-82.70,48.26 -79.30,50.02 -77.50,51.21L-74.22,53.38L-70.94,53.17C-69.02,53.09 -66.56,52.60 -65.04,52.07C-59.06,49.94 -53.74,52.31 -48.82,59.24C-46.45,62.55 -45.59,64.77 -45.87,67.02C-46.16,69.64 -46.90,70.54 -51.12,73.45C-55.70,76.56 -60.66,81.27 -61.52,83.32C-61.85,84.14 -62.13,85.86 -62.13,87.17C-62.13,92.13 -64.92,100.32 -67.95,104.21C-68.65,105.16 -72.50,109.25 -76.47,113.31C-83.31,120.27 -83.80,120.85 -85.03,123.88C-87.57,130.02 -88.88,135.10 -89.99,143.05C-90.97,150.13 -91.55,152.67 -92.41,154.11C-92.78,154.68 -94.91,156.93 -97.16,159.07C-101.71,163.41 -103.39,165.91 -105.39,171.19C-106.50,174.06 -106.74,175.37 -106.79,177.87C-106.79,179.59 -106.99,181.55 -107.24,182.29C-107.65,183.44 -107.85,183.56 -109.45,183.56C-111.82,183.56 -113.46,182.17 -114.45,179.34C-115.10,177.46 -115.18,175.74 -115.18,165.13C-115.22,157.43 -115.39,152.47 -115.67,151.40C-116.86,147.19 -117.11,143.79 -116.66,138.34C-115.84,129.16 -115.39,124.94 -114.69,120.48C-113.87,115.07 -114.16,107.90 -115.31,104.26C-116.45,100.53 -122.19,92.99 -124.89,91.56C-125.51,91.23 -127.06,90.98 -128.37,90.98C-132.06,90.98 -133.25,90.45 -136.44,87.38C-140.09,83.86 -142.01,82.54 -147.42,79.92C-156.84,75.33 -159.06,70.58 -159.87,53.50L-160.16,47.72L-156.11,43.63C-153.85,41.42 -151.56,38.63 -150.94,37.52C-149.76,35.23 -147.05,23.88 -147.59,23.43C-147.79,23.27 -148.86,22.90 -150.00,22.61C-152.58,22.00 -158.69,18.64 -162.33,15.85C-163.89,14.67 -167.00,12.45 -169.26,10.94C-171.51,9.38 -173.97,7.58 -174.74,6.84C-177.49,4.26 -181.63,-1.31 -185.60,-7.86C-188.06,-11.88 -192.93,-16.96 -194.69,-17.29C-195.39,-17.41 -196.95,-18.27 -198.14,-19.17C-199.36,-20.11 -200.63,-20.85 -200.92,-20.85C-202.27,-20.85 -205.92,-15.77 -205.92,-13.93C-205.92,-12.82 -207.72,-10.77 -209.15,-10.28C-211.00,-9.62 -211.82,-10.53 -213.74,-15.44C-216.69,-22.94 -216.98,-24.49 -217.35,-35.19C-217.72,-45.75 -217.88,-46.49 -220.26,-48.21C-220.95,-48.75 -221.61,-49.11 -221.69,-49.03C-221.73,-48.99 -222.63,-46.70 -223.66,-43.99C-230.33,-26.26 -234.27,-8.76 -235.86,10.49C-236.48,18.23 -236.11,40.68 -235.25,47.77C-232.95,66.16 -227.92,85.58 -221.81,99.59C-220.46,102.66 -212.60,118.43 -210.96,121.30C-194.90,149.56 -169.54,175.53 -141.60,192.25C-132.31,197.82 -118.95,204.49 -118.34,203.88C-118.26,203.76 -118.38,203.10 -118.62,202.36C-119.44,200.03 -119.20,197.37 -118.01,195.65C-115.22,191.51 -114.04,191.43 -107.60,194.70C-104.78,196.18 -101.13,197.94 -99.45,198.68C-97.77,199.41 -95.64,200.52 -94.70,201.18C-90.40,204.17 -83.44,206.42 -74.96,207.69C-68.16,208.71 -55.46,207.73 -46.36,205.48C-36.16,202.98 -33.79,202.69 -25.06,202.98C-17.52,203.22 -12.40,203.67 -2.12,205.11C4.60,206.01 8.49,205.76 12.50,204.13C18.56,201.67 21.10,200.19 24.34,197.24C28.93,193.11 30.61,192.29 36.22,191.55C42.61,190.65 43.63,190.32 47.65,188.03C51.62,185.77 53.26,185.53 55.80,186.84C57.60,187.74 58.75,189.05 59.53,191.02C59.86,191.75 60.10,192.41 60.18,192.49C60.31,192.70 64.08,190.40 68.83,187.21C86.61,175.33 103.65,159.15 116.55,141.98C121.96,134.77 131.22,120.48 131.22,119.29C131.22,118.47 127.45,117.90 123.72,118.22C117.29,118.72 117.66,118.80 116.59,117.24C115.32,115.40 113.48,109.13 113.76,107.70C114.26,105.20 117.33,101.22 119.79,99.99C122.00,98.85 126.30,93.97 128.10,90.53C132.36,82.50 133.10,81.97 140.80,81.52C143.75,81.36 146.50,81.11 146.86,80.95C148.30,80.37 151.82,66.16 153.75,53.09C156.33,35.85 156.53,15.24 154.36,-1.92C154.03,-4.46 153.75,-6.84 153.75,-7.17C153.75,-7.45 153.46,-7.74 153.13,-7.74C152.68,-7.74 152.52,-7.29 152.52,-6.10C152.52,-3.11 150.63,-0.86 146.66,0.82C145.06,1.52 143.50,1.60 131.79,1.72C119.95,1.85 118.56,1.76 117.08,1.11C112.90,-0.78 104.47,-6.84 103.81,-8.52C103.03,-10.36 103.20,-14.54 104.18,-18.55L105.04,-22.20L104.18,-23.06C103.44,-23.80 102.91,-23.92 100.12,-23.84C96.44,-23.76 94.80,-23.10 91.03,-20.19C86.93,-17.04 85.17,-16.83 83.98,-19.33C83.25,-20.89 81.94,-22.12 80.13,-23.06C78.62,-23.80 78.37,-23.84 77.59,-23.35C77.14,-23.06 78.49,-21.30 83.53,-15.65C87.10,-11.63 91.11,-7.13 92.42,-5.61C95.74,-1.80 101.84,1.85 109.01,4.22C111.88,5.20 116.43,5.41 124.74,4.96C127.86,4.79 128.43,4.88 129.45,5.61C132.40,7.74 133.88,14.83 132.12,18.35C130.97,20.61 128.72,22.45 125.28,24.01C122.00,25.52 120.85,25.81 113.19,27.28C106.23,28.68 98.69,30.93 96.76,32.24C95.37,33.18 92.01,37.07 90.62,39.37C88.65,42.48 87.22,45.59 84.72,51.86C81.49,59.93 80.87,61.00 77.92,63.70C74.23,67.10 72.43,69.56 67.23,78.20C58.34,93.03 56.29,94.67 45.44,95.53C38.80,96.06 36.71,96.92 33.68,100.40C30.03,104.50 28.03,104.71 23.60,101.35C20.49,98.97 20.16,93.07 22.87,86.93C25.00,82.09 25.32,79.80 24.83,73.66C24.34,67.76 24.63,65.09 26.10,62.27C28.27,58.13 28.81,55.06 29.17,44.49C29.54,33.06 29.26,26.63 28.31,24.79C27.49,23.31 24.87,20.85 23.11,19.91C21.88,19.30 16.02,18.11 14.06,18.07C11.40,18.07 9.76,17.17 6.56,13.93C4.80,12.13 2.79,10.41 2.14,10.04C0.95,9.42 -2.00,9.01 -9.78,8.32C-16.62,7.66 -18.39,5.78 -18.63,-1.39C-18.84,-6.02 -18.10,-16.63 -17.28,-21.26C-16.25,-27.24 -13.10,-33.26 -10.15,-34.78C-9.33,-35.19 -7.16,-37.07 -5.32,-38.95C-2.08,-42.27 -1.79,-42.44 0.87,-43.09C7.83,-44.77 13.89,-44.94 16.68,-43.50C17.38,-43.13 19.34,-41.54 21.02,-39.90C24.38,-36.66 28.89,-33.42 31.14,-32.69C33.68,-31.87 35.36,-32.44 41.87,-36.21C44.90,-38.01 45.64,-38.26 48.10,-38.38C49.66,-38.50 51.38,-38.42 51.95,-38.30C52.52,-38.14 54.24,-36.74 55.76,-35.15C58.71,-32.03 61.58,-30.27 63.71,-30.27C65.26,-30.27 68.29,-29.41 70.18,-28.43C71.29,-27.85 71.57,-27.81 71.86,-28.30C73.17,-30.35 70.02,-32.97 63.62,-35.19C62.15,-35.68 60.35,-36.54 59.65,-37.11C58.50,-37.93 58.30,-38.38 58.30,-39.73C58.30,-43.13 59.69,-43.95 67.93,-45.67C72.64,-46.62 73.82,-46.70 78.21,-46.49C82.84,-46.25 83.16,-46.25 83.90,-47.07C84.64,-47.89 84.64,-47.93 83.86,-49.03C82.43,-51.00 79.60,-52.06 74.77,-52.47C63.95,-53.33 63.71,-53.33 57.28,-52.19C45.27,-50.06 44.13,-50.06 42.08,-52.27C40.40,-54.07 39.50,-56.20 39.05,-59.44C38.55,-62.84 37.82,-64.31 35.73,-65.99C33.39,-67.88 29.17,-68.08 28.64,-66.40C28.48,-65.99 28.68,-64.76 29.01,-63.62C29.34,-62.51 29.62,-60.67 29.62,-59.48C29.62,-56.94 30.16,-55.42 31.55,-53.95C32.45,-53.01 32.53,-52.64 32.29,-51.33C31.96,-49.56 29.99,-46.45 28.76,-45.80C26.31,-44.49 24.30,-47.43 24.05,-52.60C23.89,-56.16 23.56,-57.10 21.55,-59.44C20.00,-61.20 19.63,-62.10 18.48,-67.10C17.79,-70.09 16.64,-70.91 13.28,-70.91C7.38,-70.91 2.83,-68.74 0.95,-65.05C-0.20,-62.84 -0.07,-60.95 1.36,-58.25C2.34,-56.41 2.59,-55.46 2.59,-53.29C2.59,-48.42 1.40,-46.37 -1.88,-45.43C-2.70,-45.18 -5.73,-44.53 -8.59,-43.91C-13.26,-42.93 -14.17,-42.85 -16.46,-43.26C-19.45,-43.79 -22.69,-45.26 -23.46,-46.49C-23.79,-46.94 -24.16,-48.42 -24.28,-49.77C-24.61,-53.05 -23.71,-64.11 -23.01,-65.50C-22.07,-67.34 -20.11,-68.69 -17.65,-69.19C-13.59,-70.05 -10.52,-73.73 -10.52,-77.71C-10.52,-82.09 -8.43,-86.15 -5.52,-87.54C-3.27,-88.60 0.99,-89.42 2.34,-89.09C2.92,-88.97 4.43,-87.91 5.74,-86.80C7.22,-85.49 8.41,-84.75 8.90,-84.83C9.96,-85.00 11.52,-87.29 12.13,-89.63C12.75,-91.84 13.53,-92.37 16.88,-92.74C21.72,-93.23 23.19,-94.79 23.11,-99.38C23.03,-106.01 20.94,-109.70 15.90,-112.03C10.78,-114.45 8.16,-112.61 5.66,-104.91C4.80,-102.29 3.33,-100.40 1.40,-99.62C0.58,-99.25 -1.96,-98.93 -4.54,-98.80C-10.27,-98.56 -11.42,-99.05 -13.10,-102.37C-14.17,-104.37 -14.25,-104.91 -14.08,-107.53C-13.92,-109.45 -13.43,-111.54 -12.61,-113.59C-11.09,-117.36 -11.09,-117.44 -12.20,-120.64L-13.06,-123.10L-11.99,-125.23C-10.03,-129.08 -4.70,-135.18 -2.33,-136.24C-0.20,-137.23 5.01,-137.15 8.53,-136.08C10.13,-135.59 12.13,-135.10 13.08,-134.93C15.41,-134.56 17.01,-133.13 21.60,-127.19C24.18,-123.87 26.47,-121.42 28.11,-120.15C32.94,-116.50 36.47,-115.35 37.41,-117.07C38.23,-118.63 37.86,-119.94 36.22,-121.66C34.87,-123.01 34.54,-123.67 34.29,-125.59C33.68,-130.67 34.95,-134.61 37.98,-136.94C40.73,-139.03 43.39,-140.10 45.48,-139.97C47.16,-139.85 47.53,-139.64 48.35,-138.50C49.70,-136.49 49.94,-133.99 49.04,-131.21C48.30,-128.83 47.85,-128.30 43.18,-124.04C41.01,-122.07 40.77,-120.88 41.91,-117.97C43.35,-114.49 43.43,-114.41 46.46,-115.23C47.85,-115.64 51.13,-116.70 53.75,-117.61C69.07,-122.89 68.99,-122.85 71.90,-122.85C74.07,-122.85 75.87,-122.48 79.76,-121.21L84.84,-119.57L87.59,-120.31L90.29,-121.05L87.10,-123.75C72.19,-136.24 55.47,-146.61 38.19,-153.98C20.20,-161.68 -1.67,-167.01 -22.52,-168.69C-28.63,-169.22 -49.80,-169.18 -55.79,-168.69ZM-87.78,-134.56C-86.84,-133.13 -85.85,-129.28 -85.81,-126.90C-85.77,-125.10 -85.89,-124.65 -86.75,-124.00C-88.39,-122.64 -92.04,-123.75 -92.82,-125.80C-93.27,-126.99 -92.61,-130.26 -91.38,-133.01C-89.99,-136.20 -89.13,-136.57 -87.78,-134.56ZM-74.01,-131.90C-72.66,-130.96 -71.97,-129.53 -71.97,-127.76C-71.97,-125.76 -73.36,-120.92 -74.22,-119.98C-75.82,-118.22 -79.38,-119.61 -80.12,-122.32C-80.69,-124.32 -80.69,-130.47 -80.12,-131.49C-79.26,-133.17 -76.14,-133.38 -74.01,-131.90ZM-146.52,-122.11C-144.72,-120.31 -144.60,-118.47 -145.87,-113.59C-146.44,-111.30 -146.93,-108.76 -146.93,-107.90C-146.93,-106.96 -146.11,-104.58 -144.84,-101.63C-143.65,-99.01 -142.63,-96.06 -142.51,-95.12C-142.14,-91.59 -144.43,-90.08 -150.17,-90.08C-153.85,-90.08 -155.66,-90.61 -155.86,-91.84C-155.94,-92.21 -155.25,-94.22 -154.30,-96.26C-151.27,-102.86 -150.78,-106.55 -152.54,-109.21C-153.20,-110.11 -154.30,-111.75 -155.00,-112.85C-157.13,-115.97 -156.76,-118.22 -153.69,-121.01C-151.07,-123.46 -148.32,-123.87 -146.52,-122.11ZM-162.21,-117.93C-161.88,-117.93 -161.06,-117.40 -160.41,-116.75C-159.34,-115.68 -159.22,-115.23 -159.22,-113.10C-159.22,-110.93 -159.38,-110.40 -160.86,-108.27L-162.54,-105.85L-162.25,-102.37C-162.05,-99.38 -162.09,-98.76 -162.66,-98.31C-163.27,-97.82 -163.52,-97.86 -164.46,-98.56C-165.90,-99.62 -166.84,-101.26 -167.45,-103.80C-167.70,-104.95 -168.56,-107.16 -169.30,-108.72C-170.98,-112.16 -171.02,-113.35 -169.62,-115.07C-168.11,-116.83 -164.71,-118.51 -163.40,-118.10C-163.07,-118.02 -162.58,-117.93 -162.21,-117.93ZM-94.09,-108.96C-88.93,-106.75 -87.61,-105.60 -87.25,-102.90C-86.92,-100.36 -87.98,-99.38 -91.42,-99.17C-98.35,-98.72 -103.55,-101.83 -104.20,-106.83C-104.45,-108.76 -103.96,-109.58 -102.07,-110.40C-100.11,-111.26 -99.08,-111.05 -94.09,-108.96ZM-23.42,-105.89L-21.99,-105.28L-21.99,-102.00C-21.99,-97.94 -21.66,-97.57 -16.58,-95.77C-11.46,-93.93 -11.46,-93.93 -12.08,-91.27C-12.36,-90.04 -12.77,-88.03 -12.94,-86.80C-13.39,-83.89 -14.17,-82.42 -16.21,-80.53C-18.26,-78.69 -20.19,-78.28 -22.56,-79.18C-24.53,-79.96 -25.84,-81.15 -26.45,-82.83C-27.07,-84.43 -27.03,-85.61 -26.25,-89.75L-25.55,-93.27L-27.85,-95.89C-29.28,-97.45 -30.26,-99.01 -30.43,-99.83C-31.29,-104.37 -27.56,-107.61 -23.42,-105.89ZM-138.86,-2.62C-136.77,-1.72 -135.87,-0.82 -135.87,0.37C-135.87,3.73 -140.17,3.65 -143.16,0.29C-143.86,-0.53 -144.47,-1.47 -144.47,-1.80C-144.47,-3.23 -141.40,-3.68 -138.86,-2.62ZM-121.78,-1.51C-119.40,1.27 -119.89,2.34 -123.83,2.87C-126.45,3.24 -129.64,2.79 -130.50,1.89C-131.04,1.35 -131.04,1.11 -130.42,-0.16C-129.52,-2.09 -127.55,-3.23 -125.14,-3.23C-123.42,-3.23 -123.09,-3.07 -121.78,-1.51ZM85.54,72.79C88.57,74.76 88.57,83.16 85.54,87.13C84.15,88.93 82.22,90.16 80.75,90.16C79.89,90.16 79.44,89.84 78.95,88.89C78.00,87.09 78.00,84.31 78.90,83.28C80.09,82.01 81.24,78.45 81.24,76.19C81.24,74.56 81.44,73.94 82.26,73.16C83.41,71.98 84.15,71.89 85.54,72.79Z" fill="#80ced6"/>
        <path d="M129.58,-27.65C127.12,-26.95 126.01,-26.34 125.44,-25.27C124.09,-22.77 124.25,-20.44 125.77,-19.82C126.18,-19.66 129.74,-19.37 133.67,-19.21C139.94,-18.92 141.33,-18.72 144.94,-17.65C147.68,-16.79 149.28,-16.10 149.77,-15.44C150.51,-14.54 150.55,-14.54 151.12,-15.32C151.45,-15.73 151.70,-16.38 151.70,-16.71C151.70,-17.61 149.77,-24.95 149.49,-25.27C149.32,-25.40 148.71,-24.99 148.09,-24.41C146.17,-22.57 143.96,-22.94 140.96,-25.60C138.34,-27.94 133.71,-28.80 129.58,-27.65Z" fill="#80ced6"/>
        <path d="M240.33,-168.38C257.85,-154.05 271.30,-134.31 279.06,-111.55L174.49,-66.35Z" fill="#fefbd8"/>
        <path d="M226.76,-270.95L430.88,-270.95C441.87,-270.95 450.79,-253.37 450.79,-231.71L450.79,-136.42C450.79,-114.76 441.87,-97.18 430.88,-97.18L226.76,-97.18C215.77,-97.18 206.85,-114.76 206.85,-136.42L206.85,-231.71C206.85,-253.37 215.77,-270.95 226.76,-270.95Z" fill="#fefbd8"/>
        <path d="M256.63,-198.08L410.96,-198.08L410.96,-192.47L256.63,-192.47Z" fill="#618685"/>
        <path d="M256.63,-164.44L410.96,-164.44L410.96,-158.84L256.63,-158.84Z" fill="#618685"/>
        <path d="M-238.33,-246.78C-255.85,-232.45 -269.30,-212.71 -277.06,-189.95L-172.49,-144.75Z" fill="#fefbd8"/>
        <path d="M-224.76,-349.35L-428.88,-349.35C-439.87,-349.35 -448.79,-331.77 -448.79,-310.11L-448.79,-214.82C-448.79,-193.16 -439.87,-175.58 -428.88,-175.58L-224.76,-175.58C-213.77,-175.58 -204.85,-193.16 -204.85,-214.82L-204.85,-310.11C-204.85,-331.77 -213.77,-349.35 -224.76,-349.35Z" fill="#fefbd8"/>
        <path d="M-254.63,-276.48L-408.96,-276.48L-408.96,-270.87L-254.63,-270.87Z" fill="#618685"/>
        <path d="M-254.63,-242.84L-408.96,-242.84L-408.96,-237.24L-254.63,-237.24Z" fill="#618685"/>
    </g>
</svg>